<svg width="104" height="110" viewBox="0 0 104 110" fill="none" xmlns="http://www.w3.org/2000/svg">
<path d="M27.8715 0.106228V29H19.5023V14.0549L14.2018 21.109L8.98095 14.0549V29H0.611724V0.106228H8.98095L14.2018 7.12044L19.5023 0.106228H27.8715ZM47.9421 0.106228L56.8693 29H48.5L47.5834 25.5726H38.8555L37.9787 29H29.6095L38.5367 0.106228H47.9421ZM44.8734 17.4823L43.2394 10.8268L41.5655 17.4823H44.8734ZM67.3601 0.106228C69.3527 0.106228 71.2259 0.491478 72.9794 1.26198C74.733 2.00591 76.2607 3.0421 77.5626 4.37055C78.8644 5.67243 79.8874 7.20015 80.6313 8.9537C81.4018 10.6807 81.787 12.5405 81.787 14.5332C81.787 16.5259 81.4018 18.399 80.6313 20.1525C79.8874 21.9061 78.8644 23.4471 77.5626 24.7755C76.2607 26.0774 74.733 27.1136 72.9794 27.8841C71.2259 28.628 69.3527 29 67.3601 29H58.9908V0.106228H67.3601ZM67.3601 20.5511C68.2103 20.5511 69.0074 20.4049 69.7513 20.1127C70.5218 19.7938 71.186 19.3687 71.744 18.8374C72.3019 18.2794 72.7403 17.6285 73.0591 16.8845C73.3779 16.1406 73.5374 15.3435 73.5374 14.4933C73.5374 13.6431 73.3779 12.8461 73.0591 12.1021C72.7403 11.3582 72.3019 10.7205 71.744 10.1892C71.186 9.63121 70.5218 9.19282 69.7513 8.87399C69.0074 8.55517 68.2103 8.39575 67.3601 8.39575V20.5511ZM103.994 20.6308V29H83.9475V0.106228H103.994V8.47546H92.3168V11.0659H102.081V18.0801H92.3168V20.6308H103.994ZM39.3493 40.1062L31.0598 69H22.3319L19.8211 59.6743L17.2705 69H8.54257L0.253043 40.1062H9.81788L13.5243 54.0151L16.3937 40.1062H23.2086L26.118 54.0151L29.7845 40.1062H39.3493ZM40.8933 40.1062H53.4073V47.519H51.3349V61.5873H53.4073V69H40.8933V61.5873H42.9657V47.519H40.8933V40.1062ZM75.4566 40.1062V48.4755H69.7177V69H61.3484V48.4755H55.5697V40.1062H75.4566ZM99.2348 40.1062V69H90.8655V58.6779H85.9636V69H77.5943V40.1062H85.9636V50.3486H90.8655V40.1062H99.2348ZM15.4372 100.631V109H1.01026V80.1062H9.37949V100.631H15.4372ZM30.6242 79.5483C32.6966 79.5483 34.6361 79.9468 36.4428 80.7439C38.2761 81.5144 39.8702 82.5771 41.2252 83.9322C42.5802 85.2872 43.643 86.8813 44.4135 88.7146C45.2106 90.5213 45.6091 92.4608 45.6091 94.5332C45.6091 96.6056 45.2106 98.5584 44.4135 100.392C43.643 102.198 42.5802 103.779 41.2252 105.134C39.8702 106.489 38.2761 107.565 36.4428 108.362C34.6361 109.133 32.6966 109.518 30.6242 109.518C28.5518 109.518 26.599 109.133 24.7657 108.362C22.959 107.565 21.3782 106.489 20.0232 105.134C18.6682 103.779 17.5921 102.198 16.795 100.392C16.0245 98.5584 15.6393 96.6056 15.6393 94.5332C15.6393 92.4608 16.0245 90.5213 16.795 88.7146C17.5921 86.8813 18.6682 85.2872 20.0232 83.9322C21.3782 82.5771 22.959 81.5144 24.7657 80.7439C26.599 79.9468 28.5518 79.5483 30.6242 79.5483ZM37.0406 94.4933C37.0406 93.6166 36.8679 92.7929 36.5225 92.0224C36.2037 91.2519 35.7653 90.5877 35.2073 90.0297C34.6494 89.4718 33.9852 89.0334 33.2147 88.7146C32.4442 88.3692 31.6205 88.1965 30.7438 88.1965C29.867 88.1965 29.0433 88.3692 28.2728 88.7146C27.5023 89.0334 26.8248 89.4718 26.2403 90.0297C25.6824 90.5877 25.2307 91.2519 24.8853 92.0224C24.5665 92.7929 24.4071 93.6166 24.4071 94.4933C24.4071 95.3701 24.5665 96.1937 24.8853 96.9642C25.2307 97.7348 25.6824 98.4123 26.2403 98.9968C26.8248 99.5547 27.5023 100.006 28.2728 100.352C29.0433 100.671 29.867 100.83 30.7438 100.83C31.6205 100.83 32.4442 100.671 33.2147 100.352C33.9852 100.006 34.6494 99.5547 35.2073 98.9968C35.7653 98.4123 36.2037 97.7348 36.5225 96.9642C36.8679 96.1937 37.0406 95.3701 37.0406 94.4933ZM62.139 80.1062H71.3053L63.5737 108.721H53.3712L45.6396 80.1062H54.8059L58.4724 94.4136L62.139 80.1062ZM93.0186 100.631V109H72.9722V80.1062H93.0186V88.4755H81.3415V91.0659H91.1056V98.0801H81.3415V100.631H93.0186Z" fill="black"/>
</svg>
